<svg width="45" height="35" viewBox="0 0 45 35" fill="none" xmlns="http://www.w3.org/2000/svg">
<path d="M36.608 31.8723C35.4986 33.3229 34.3466 34.1336 33.152 34.3043C31.872 34.4749 30.8053 34.2189 29.952 33.5363C29.0133 32.9389 28.5013 32.0003 28.416 30.7203C28.2453 29.5256 28.7573 28.2029 29.952 26.7523C31.6586 24.6189 32.8533 22.4856 33.536 20.3523C34.1333 18.2189 34.432 16.2989 34.432 14.5923L34.944 18.8163C31.9573 18.8163 29.568 17.9629 27.776 16.2563C25.8986 14.5496 24.96 12.2456 24.96 9.34427C24.96 6.6136 25.8133 4.35227 27.52 2.56027C29.2266 0.8536 31.5306 0.000267029 34.432 0.000267029C37.4186 0.000267029 39.7653 1.02427 41.472 3.07227C43.1786 5.12027 44.032 7.97893 44.032 11.6483C44.032 13.6963 43.8613 15.7869 43.52 17.9203C43.0933 20.1389 42.3253 22.4003 41.216 24.7043C40.1066 27.0083 38.5706 29.3976 36.608 31.8723ZM11.648 31.8723C10.5387 33.3229 9.38665 34.1336 8.19198 34.3043C6.91198 34.4749 5.84531 34.2189 4.99198 33.5363C4.05331 32.9389 3.54131 32.0003 3.45598 30.7203C3.28532 29.5256 3.79731 28.2029 4.99198 26.7523C6.69865 24.6189 7.89331 22.4856 8.57598 20.3523C9.17331 18.2189 9.47198 16.2989 9.47198 14.5923L9.98398 18.8163C6.99731 18.8163 4.60798 17.9629 2.81598 16.2563C0.938648 14.5496 -1.90735e-05 12.2456 -1.90735e-05 9.34427C-1.90735e-05 6.6136 0.853313 4.35227 2.55998 2.56027C4.26665 0.8536 6.57065 0.000267029 9.47198 0.000267029C12.4586 0.000267029 14.8053 1.02427 16.512 3.07227C18.2186 5.12027 19.072 7.97893 19.072 11.6483C19.072 13.6963 18.9013 15.7869 18.56 17.9203C18.1333 20.1389 17.3653 22.4003 16.256 24.7043C15.1466 27.0083 13.6107 29.3976 11.648 31.8723Z" fill="black"/>
</svg>
