<svg width="141" height="85" viewBox="0 0 141 85" fill="none" xmlns="http://www.w3.org/2000/svg">
<path d="M65.0406 4.27246C53.5967 16.5143 49.9742 26.4557 54.0907 34.5075C54.9963 36.315 55.7373 38.5333 55.7373 39.5192C55.7373 42.477 49.8095 52.6649 45.1991 57.6767C42.7292 60.3058 41.2472 62.442 41.9059 62.442C44.1288 62.442 50.1389 54.6367 54.42 46.0921C55.8196 43.3808 56.9722 41.984 57.4662 42.477C57.9602 42.97 56.3136 46.4207 53.1851 51.679C49.6449 57.5123 47.9983 61.2096 47.669 63.7565C47.422 66.1392 47.5866 67.3716 48.2453 67.3716C48.7392 67.3716 49.1509 66.1392 49.1509 64.6603C49.1509 61.6204 51.7031 55.8691 55.9019 49.2963C59.9361 43.0521 60.8417 42.3948 67.4281 41.8197C78.4603 40.8338 83.7294 34.0967 88.7516 14.789C89.5749 11.4204 89.7395 11.2561 90.8098 12.735C91.4684 13.5566 92.2094 14.0495 92.4564 13.7209C92.7857 13.3923 92.5387 12.6528 91.9624 11.9134C91.3038 11.0918 91.2215 10.681 91.8801 10.681C92.3741 10.681 92.9504 11.6669 93.2797 12.8993C94.103 16.9251 94.4323 17.4181 95.8319 17.0895C98.2195 16.6787 97.9725 14.1317 95.4203 11.5026C93.362 9.53072 92.2094 9.03776 89.3279 9.03776C86.364 9.03776 84.3881 8.21615 78.5427 4.51894C74.6732 2.05413 70.886 0.000122577 70.3097 0.000122577C69.651 0.000122577 67.3458 1.97197 65.0406 4.27246ZM79.366 6.32647L85.2114 10.0237L74.6732 15.1998C63.8879 20.5402 55.3256 23.7445 54.42 22.7585C53.5967 21.9369 58.7012 13.9674 64.5466 7.06591C70.5567 -0.0820377 69.1571 0.000122577 79.366 6.32647ZM84.9644 18.4862C83.4001 25.2233 79.7776 32.5356 76.5667 35.4112C73.6029 38.1225 70.5567 39.1906 64.1349 39.7657C59.1128 40.1765 58.9481 40.1765 58.1248 37.9582C57.7132 36.7258 57.1369 35.1647 56.8076 34.5075C56.1489 32.7821 55.5726 30.3994 55.4903 28.0168C55.3256 26.3736 56.0666 25.7985 61.5004 23.9088C64.8759 22.6764 71.7093 19.5543 76.7314 17.0073C81.6712 14.5425 85.87 12.5707 86.0347 12.6528C86.117 12.8171 85.623 15.4463 84.9644 18.4862Z" fill="black"/>
<path d="M0.0823299 5.91585C0.16466 9.1201 1.6466 9.69523 2.88155 6.98394C3.37552 5.83369 4.36348 4.92993 5.10445 4.92993C7.08037 4.92993 6.91571 19.5545 4.93979 21.0333C3.62251 22.0193 4.03416 22.1014 7.82134 22.1836C10.1266 22.1836 12.1025 21.7728 12.1025 21.362C12.1025 20.869 11.7732 20.5404 11.2792 20.5404C10.7852 20.5404 10.4559 17.4183 10.4559 12.7352C10.4559 8.46282 10.7029 4.92993 11.1145 4.92993C12.1848 4.92993 13.4198 6.16233 13.9961 7.64122C14.8194 9.77739 16.219 8.54498 16.219 5.66937V3.28672H8.15066H0L0.0823299 5.91585Z" fill="black"/>
<path d="M18.6066 4.43697C19.9239 5.99801 19.9239 19.4723 18.6889 21.0333C17.7833 22.0193 18.2773 22.1836 21.4881 22.1836C24.7813 22.1836 25.3576 21.9371 24.946 20.7047C24.699 19.9653 24.452 17.9934 24.2873 16.4324C24.0403 13.6389 24.1227 13.5568 27.1689 13.3103L30.2151 13.0638V16.761C30.2151 18.815 29.8858 20.5404 29.3918 20.5404C28.9801 20.5404 28.5685 20.869 28.5685 21.362C28.5685 21.7728 30.2151 22.1836 32.2733 22.1836C34.3316 22.1836 35.9782 21.7728 35.9782 21.362C35.9782 20.869 35.6489 20.5404 35.1549 20.5404C34.6609 20.5404 34.3316 17.4183 34.3316 12.7352C34.3316 8.05202 34.6609 4.92993 35.1549 4.92993C35.6489 4.92993 35.9782 4.51913 35.9782 4.10832C35.9782 3.61536 34.3316 3.28672 32.2733 3.28672C28.8155 3.28672 27.4982 4.19048 29.3918 5.34073C29.8858 5.58721 30.2151 7.14826 30.2151 8.7093C30.2151 11.4206 30.1328 11.5028 26.9219 11.5028C23.7934 11.5028 23.6287 11.3384 24.0403 9.44874C24.2873 8.2985 24.6167 6.49097 24.8636 5.34073C25.2753 3.36888 25.1106 3.28672 21.4881 3.28672C18.3596 3.28672 17.8656 3.45104 18.6066 4.43697Z" fill="black"/>
<path d="M38.9421 4.68345C40.0124 7.23042 40.3417 18.9793 39.3538 19.9653C37.5425 21.7728 38.5305 22.1836 44.9522 22.1836C51.3739 22.1836 51.4562 22.1836 51.8679 19.8831C52.5265 16.6789 51.2093 15.8572 49.5627 18.4042C48.657 19.7188 47.4221 20.5404 46.1871 20.5404C44.3759 20.5404 44.2112 20.2117 44.2112 16.8432C44.2112 14.0497 44.5405 13.146 45.4462 13.146C46.1871 13.146 46.9281 13.7211 47.1751 14.3784C48.0807 16.761 49.151 15.6108 49.151 12.16C49.151 8.95578 49.0687 8.87362 47.6691 10.106C45.1992 12.3244 44.2112 11.7492 44.2112 8.21634C44.2112 5.50505 44.4582 4.92993 45.8578 4.92993C46.6811 4.92993 48.1631 5.66937 49.0687 6.65529C51.0446 8.79146 52.3619 8.13418 51.7856 5.34073C51.4562 3.36888 51.2093 3.28672 44.8699 3.28672C38.8598 3.28672 38.3658 3.45104 38.9421 4.68345Z" fill="black"/>
<path d="M3.45779 25.3881C3.2108 25.8811 3.62245 26.5384 4.36342 26.9492C5.59837 27.6065 10.7028 44.0385 13.0904 55.2123C13.8314 58.7452 14.243 59.156 16.1366 59.156C18.1948 59.156 18.4418 58.7452 21.8997 46.1747C25.6045 33.2755 26.9218 29.907 26.9218 33.7685C26.9218 34.8366 28.2391 40.7521 29.8033 46.832C32.1909 56.1983 32.4379 58.0058 31.3676 58.5809C29.721 59.4847 29.8857 60.2241 32.5202 63.0176C36.5544 67.4542 49.3155 74.9308 50.5505 73.6163C51.1268 73.0411 51.6208 73.3698 44.952 70.0012C35.6488 65.4002 29.721 59.156 34.5785 59.156C36.3074 59.156 36.8837 58.0058 40.5062 46.9963C45.3637 32.2896 47.2573 27.7708 48.8216 26.867C51.0445 25.6346 49.0685 24.6487 44.1287 24.6487C39.0243 24.6487 38.1187 25.3881 41.0002 27.1957C42.6468 28.3459 42.6468 28.5102 41.4119 33.2755C39.8476 39.2732 35.3195 53.2405 35.2371 52.4189C35.1548 52.0902 33.8375 45.9282 32.2732 38.616C30.709 31.3037 29.3917 25.2238 29.3917 24.9773C29.3917 24.7309 28.4037 24.6487 27.1688 24.813C24.7812 25.0595 23.8756 27.4422 19.4298 44.285C18.3595 48.393 17.2892 51.7616 17.0422 51.7616C16.7952 51.7616 15.3956 46.5033 13.8314 40.177L11.0321 28.5102L13.0081 27.0314C14.0783 26.2097 14.8193 25.4703 14.5723 25.3881C11.5261 24.813 3.86944 24.813 3.45779 25.3881Z" fill="black"/>
<path d="M87.2695 25.6342C87.4341 26.2093 88.0927 26.6201 88.5867 26.4558C89.0807 26.3737 89.5747 27.1131 89.5747 28.099C89.657 29.6601 89.5747 54.226 89.4924 56.0335C89.4924 56.4443 88.916 56.6908 88.2574 56.6908C87.5988 56.6908 87.0225 57.2659 87.0225 57.9232C87.0225 58.827 88.0927 59.1556 91.3859 59.1556C96.4904 59.1556 97.643 58.4984 95.3378 56.6908C93.9382 55.6227 93.7735 54.1439 93.4442 42.9701C93.2795 36.1507 93.4442 30.7282 93.7735 30.8925C94.1028 31.139 94.4321 31.7962 94.4321 32.2892C94.5145 32.8643 97.89 39.0264 102.089 46.01C107.852 55.6227 110.157 58.827 111.557 58.9913L113.368 59.2378V43.5452C113.368 30.3995 113.533 27.7704 114.603 27.4418C115.262 27.1131 115.838 26.4558 115.838 25.8807C115.838 25.2234 114.356 24.8948 111.31 24.8948C106.782 24.8948 105.711 25.6342 108.017 26.8666C109.005 27.4418 109.334 30.0709 109.663 39.0264L110.075 50.5288L106.535 44.3668C104.559 40.9982 101.101 35.247 98.878 31.6319L94.7615 25.0591L90.8096 24.8126C87.8458 24.6483 86.9401 24.8126 87.2695 25.6342Z" fill="black"/>
<path d="M117.485 25.9626C117.485 26.6199 118.061 27.1129 118.72 27.1129C119.79 27.1129 119.955 29.3312 119.955 41.8196C119.955 54.1436 119.79 56.6084 118.72 57.0192C115.262 58.3338 118.555 58.9089 129.011 58.9911L140.537 59.0732L140.619 56.0333C140.619 54.3901 140.784 52.3361 140.949 51.5145C141.443 48.721 138.232 49.9534 137.244 52.9112C136.256 56.0333 134.774 56.6906 128.846 56.6906H124.894V49.707V42.7233H128.681C131.728 42.7233 132.551 43.052 132.88 44.3665C133.127 45.2703 134.033 46.0097 134.856 46.0097C136.256 46.0097 136.42 45.3525 136.42 41.0801C136.42 37.2186 136.173 36.1505 135.186 36.1505C134.445 36.1505 133.539 37.0543 133.127 38.2045C132.469 40.012 131.81 40.2585 128.599 40.2585H124.812L125.059 34.0143L125.306 27.7702L129.422 27.6058C134.28 27.3594 136.256 28.181 137.244 30.8922C137.655 31.9603 138.561 32.8641 139.302 32.8641C140.208 32.8641 140.537 31.8782 140.537 28.8382V24.8945L129.011 24.8124C119.708 24.8124 117.485 25.0589 117.485 25.9626Z" fill="black"/>
<path d="M81.2596 69.0152C80.354 69.919 79.613 71.2335 79.613 71.8908C79.613 73.2054 82.0006 75.7524 85.4585 78.135C86.6934 78.9566 87.1051 79.8604 86.7757 80.7641C86.1171 82.5717 82.0829 82.6538 82.0829 80.9285C82.0829 80.2712 81.5066 79.696 80.848 79.696C80.107 79.696 79.613 80.4355 79.613 81.6679C79.613 83.2289 80.107 83.6397 82.6592 84.0505C87.1874 84.79 89.8219 83.2289 90.1513 79.5317C90.3982 76.7383 90.0689 76.3275 87.0227 74.2735C85.0468 72.9589 83.7295 71.48 83.8942 70.7406C84.2235 68.933 87.1051 68.5222 88.0107 70.1655C89.081 72.1373 90.3159 71.7265 90.3159 69.426C90.3159 67.5363 89.9866 67.372 86.6111 67.372C83.9765 67.372 82.4123 67.865 81.2596 69.0152Z" fill="black"/>
<path d="M93.5268 74.8487C93.6915 80.5178 93.5268 82.5718 92.7035 83.0648C91.9625 83.5577 93.0328 83.8042 95.6674 83.8042C98.7959 83.8042 99.4545 83.5577 98.7136 82.8183C98.1373 82.2432 97.7256 80.5999 97.7256 79.1211C97.7256 76.5741 97.8903 76.4098 100.443 76.4098H103.242L102.665 80.107L102.089 83.8042H105.465C108.017 83.8042 108.511 83.5577 107.77 82.8183C106.535 81.5859 106.37 69.0153 107.605 69.0153C108.099 69.0153 108.429 68.6045 108.429 68.1937C108.429 67.7008 106.947 67.3721 105.135 67.3721C102.089 67.3721 100.854 68.2759 102.583 69.344C102.995 69.6726 103.242 70.4942 103.077 71.3158C102.912 72.0553 102.748 73.0412 102.748 73.5342C102.665 73.945 101.595 74.3558 100.196 74.3558C97.9726 74.3558 97.7256 74.1093 97.7256 71.8088C97.7256 70.4942 98.1373 68.9332 98.7136 68.3581C99.4545 67.6186 98.9606 67.3721 96.4907 67.3721H93.1975L93.5268 74.8487Z" fill="black"/>
<path d="M113.039 68.9327C109.087 73.2872 109.91 81.5032 114.439 83.3929C119.214 85.3647 123.66 83.3929 124.977 78.6276C126.706 72.2191 123.66 67.3716 117.896 67.3716C115.591 67.3716 114.027 67.8646 113.039 68.9327ZM119.79 70.0008C122.178 73.0407 121.437 81.421 118.72 82.4891C117.073 83.0642 115.18 80.9281 114.521 77.7238C113.78 73.5337 115.509 69.0148 117.896 69.0148C118.473 69.0148 119.296 69.5078 119.79 70.0008Z" fill="black"/>
<path d="M128.023 68.3577C128.599 68.9329 129.011 71.8085 129.011 75.5878C129.011 79.3672 128.599 82.2428 128.023 82.818C127.282 83.5574 127.941 83.8039 131.151 83.7217C133.374 83.7217 134.692 83.4752 134.198 83.2288C133.621 83.0644 133.127 81.5855 133.127 80.0245C133.127 77.4775 133.374 77.2311 135.515 77.2311C140.29 77.2311 142.678 71.2333 139.055 68.3577C137.244 67.0432 126.623 66.961 128.023 68.3577ZM136.75 70.8225C137.82 72.5479 136.585 75.0127 134.445 75.4235C133.374 75.67 133.127 75.0127 133.127 72.3014C133.127 69.5901 133.374 68.9329 134.445 69.1793C135.186 69.3437 136.256 70.0831 136.75 70.8225Z" fill="black"/>
</svg>
