<?xml version="1.0" standalone="no"?>
<svg version="1.0" xmlns="http://www.w3.org/2000/svg"
 width="300.000000pt" height="214.000000pt" viewBox="0 0 300.000000 214.000000"
 preserveAspectRatio="xMidYMid meet">
<metadata>
Created by potrace 1.10, written by Peter Selinger 2001-2011
</metadata>
<g transform="translate(0.000000,214.000000) scale(0.100000,-0.100000)"
fill="#000000" stroke="none">
<path d="M1433 1628 c-139 -149 -183 -270 -133 -368 11 -22 20 -49 20 -61 0
-36 -72 -160 -128 -221 -30 -32 -48 -58 -40 -58 27 0 100 95 152 199 17 33 31
50 37 44 6 -6 -14 -48 -52 -112 -43 -71 -63 -116 -67 -147 -3 -29 -1 -44 7
-44 6 0 11 15 11 33 0 37 31 107 82 187 49 76 60 84 140 91 134 12 198 94 259
329 10 41 12 43 25 25 8 -10 17 -16 20 -12 4 4 1 13 -6 22 -8 10 -9 15 -1 15
6 0 13 -12 17 -27 10 -49 14 -55 31 -51 29 5 26 36 -5 68 -25 24 -39 30 -74
30 -36 0 -60 10 -131 55 -47 30 -93 55 -100 55 -8 0 -36 -24 -64 -52z m174
-25 l71 -45 -128 -63 c-131 -65 -235 -104 -246 -92 -10 10 52 107 123 191 73
87 56 86 180 9z m68 -148 c-19 -82 -63 -171 -102 -206 -36 -33 -73 -46 -151
-53 -61 -5 -63 -5 -73 22 -5 15 -12 34 -16 42 -8 21 -15 50 -16 79 -2 20 7 27
73 50 41 15 124 53 185 84 60 30 111 54 113 53 1 -2 -5 -34 -13 -71z"/>
<path d="M644 1608 c1 -39 19 -46 34 -13 6 14 18 25 27 25 24 0 22 -178 -2
-196 -16 -12 -11 -13 35 -14 28 0 52 5 52 10 0 6 -4 10 -10 10 -6 0 -10 38
-10 95 0 52 3 95 8 95 13 0 28 -15 35 -33 10 -26 27 -11 27 24 l0 29 -98 0
-99 0 1 -32z"/>
<path d="M869 1626 c16 -19 16 -183 1 -202 -11 -12 -5 -14 34 -14 40 0 47 3
42 18 -3 9 -6 33 -8 52 -3 34 -2 35 35 38 l37 3 0 -45 c0 -25 -4 -46 -10 -46
-5 0 -10 -4 -10 -10 0 -5 20 -10 45 -10 25 0 45 5 45 10 0 6 -4 10 -10 10 -6
0 -10 38 -10 95 0 57 4 95 10 95 6 0 10 5 10 10 0 6 -20 10 -45 10 -42 0 -58
-11 -35 -25 6 -3 10 -22 10 -41 0 -33 -1 -34 -40 -34 -38 0 -40 2 -35 25 3 14
7 36 10 50 5 24 3 25 -41 25 -38 0 -44 -2 -35 -14z"/>
<path d="M1116 1623 c13 -31 17 -174 5 -186 -22 -22 -10 -27 68 -27 78 0 79 0
84 28 8 39 -8 49 -28 18 -11 -16 -26 -26 -41 -26 -22 0 -24 4 -24 45 0 34 4
45 15 45 9 0 18 -7 21 -15 11 -29 24 -15 24 27 0 39 -1 40 -18 25 -30 -27 -42
-20 -42 23 0 33 3 40 20 40 10 0 28 -9 39 -21 24 -26 40 -18 33 16 -4 24 -7
25 -84 25 -73 0 -79 -2 -72 -17z"/>
<path d="M685 1371 c-3 -6 2 -14 11 -19 15 -8 77 -208 106 -344 9 -43 14 -48
37 -48 25 0 28 5 70 158 45 157 61 198 61 151 0 -13 16 -85 35 -159 29 -114
32 -136 19 -143 -20 -11 -18 -20 14 -54 49 -54 204 -145 219 -129 7 7 13 3
-68 44 -113 56 -185 132 -126 132 21 0 28 14 72 148 59 179 82 234 101 245 27
15 3 27 -57 27 -62 0 -73 -9 -38 -31 20 -14 20 -16 5 -74 -19 -73 -74 -243
-75 -233 -1 4 -17 79 -36 168 -19 89 -35 163 -35 166 0 3 -12 4 -27 2 -29 -3
-40 -32 -94 -237 -13 -50 -26 -91 -29 -91 -3 0 -20 64 -39 141 l-34 142 24 18
c13 10 22 19 19 20 -37 7 -130 7 -135 0z"/>
<path d="M1703 1368 c2 -7 10 -12 16 -10 6 1 12 -8 12 -20 1 -19 0 -318 -1
-340 0 -5 -7 -8 -15 -8 -8 0 -15 -7 -15 -15 0 -11 13 -15 53 -15 62 0 76 8 48
30 -17 13 -19 31 -23 167 -2 83 0 149 4 147 4 -3 8 -11 8 -17 1 -7 42 -82 93
-167 70 -117 98 -156 115 -158 l22 -3 0 191 c0 160 2 192 15 196 8 4 15 12 15
19 0 8 -18 12 -55 12 -55 0 -68 -9 -40 -24 12 -7 16 -39 20 -148 l5 -140 -43
75 c-24 41 -66 111 -93 155 l-50 80 -48 3 c-36 2 -47 0 -43 -10z"/>
<path d="M2070 1364 c0 -8 7 -14 15 -14 13 0 15 -27 15 -179 0 -150 -2 -180
-15 -185 -42 -16 -2 -23 125 -24 l140 -1 1 37 c0 20 2 45 4 55 6 34 -33 19
-45 -17 -12 -38 -30 -46 -102 -46 l-48 0 0 85 0 85 46 0 c37 0 47 -4 51 -20 3
-11 14 -20 24 -20 17 0 19 8 19 60 0 47 -3 60 -15 60 -9 0 -20 -11 -25 -25 -8
-22 -16 -25 -55 -25 l-46 0 3 76 3 76 50 2 c59 3 83 -7 95 -40 5 -13 16 -24
25 -24 11 0 15 12 15 49 l0 48 -140 1 c-113 0 -140 -3 -140 -14z"/>
<path d="M1630 840 c-11 -11 -20 -27 -20 -35 0 -16 29 -47 71 -76 15 -10 20
-21 16 -32 -8 -22 -57 -23 -57 -2 0 8 -7 15 -15 15 -9 0 -15 -9 -15 -24 0 -19
6 -24 37 -29 55 -9 87 10 91 55 3 34 -1 39 -38 64 -24 16 -40 34 -38 43 4 22
39 27 50 7 13 -24 28 -19 28 9 0 23 -4 25 -45 25 -32 0 -51 -6 -65 -20z"/>
<path d="M1779 769 c2 -69 0 -94 -10 -100 -9 -6 4 -9 36 -9 38 0 46 3 37 12
-7 7 -12 27 -12 45 0 31 2 33 33 33 l34 0 -7 -45 -7 -45 41 0 c31 0 37 3 28
12 -15 15 -17 168 -2 168 6 0 10 5 10 10 0 6 -18 10 -40 10 -37 0 -52 -11 -31
-24 5 -4 8 -14 6 -24 -2 -9 -4 -21 -4 -27 -1 -5 -14 -10 -31 -10 -27 0 -30 3
-30 31 0 16 5 35 12 42 9 9 3 12 -27 12 l-40 0 4 -91z"/>
<path d="M2016 841 c-48 -53 -38 -153 17 -176 58 -24 112 0 128 58 21 78 -16
137 -86 137 -28 0 -47 -6 -59 -19z m82 -13 c29 -37 20 -139 -13 -152 -20 -7
-43 19 -51 58 -9 51 12 106 41 106 7 0 17 -6 23 -12z"/>
<path d="M2198 848 c7 -7 12 -42 12 -88 0 -46 -5 -81 -12 -88 -9 -9 -1 -12 38
-11 27 0 43 3 37 6 -7 2 -13 20 -13 39 0 31 3 34 29 34 58 0 87 73 43 108 -22
16 -151 17 -134 0z m106 -30 c13 -21 -2 -51 -28 -56 -13 -3 -16 5 -16 38 0 33
3 41 16 38 9 -2 22 -11 28 -20z"/>
</g>
</svg>
