<svg width="45" height="35" viewBox="0 0 45 35" fill="none" xmlns="http://www.w3.org/2000/svg">
<path d="M7.424 2.4832C8.53333 1.03253 9.68533 0.221869 10.88 0.051199C12.16 -0.119465 13.2267 0.136534 14.08 0.819197C15.0187 1.41653 15.5307 2.3552 15.616 3.6352C15.7867 4.82986 15.2747 6.15253 14.08 7.6032C12.3733 9.73653 11.1787 11.8699 10.496 14.0032C9.89867 16.1365 9.6 18.0565 9.6 19.7632L9.088 15.5392C12.0747 15.5392 14.464 16.3925 16.256 18.0992C18.1333 19.8059 19.072 22.1099 19.072 25.0112C19.072 27.7419 18.2187 30.0032 16.512 31.7952C14.8053 33.5019 12.5013 34.3552 9.6 34.3552C6.61333 34.3552 4.26667 33.3312 2.56 31.2832C0.853333 29.2352 0 26.3765 0 22.7072C0 20.6592 0.170667 18.5685 0.512 16.4352C0.938667 14.2165 1.70667 11.9552 2.816 9.6512C3.92533 7.3472 5.46133 4.95787 7.424 2.4832ZM32.384 2.4832C33.4933 1.03253 34.6453 0.221869 35.84 0.051199C37.12 -0.119465 38.1867 0.136534 39.04 0.819197C39.9787 1.41653 40.4907 2.3552 40.576 3.6352C40.7467 4.82986 40.2347 6.15253 39.04 7.6032C37.3333 9.73653 36.1387 11.8699 35.456 14.0032C34.8587 16.1365 34.56 18.0565 34.56 19.7632L34.048 15.5392C37.0347 15.5392 39.424 16.3925 41.216 18.0992C43.0933 19.8059 44.032 22.1099 44.032 25.0112C44.032 27.7419 43.1787 30.0032 41.472 31.7952C39.7653 33.5019 37.4613 34.3552 34.56 34.3552C31.5733 34.3552 29.2267 33.3312 27.52 31.2832C25.8133 29.2352 24.96 26.3765 24.96 22.7072C24.96 20.6592 25.1307 18.5685 25.472 16.4352C25.8987 14.2165 26.6667 11.9552 27.776 9.6512C28.8853 7.3472 30.4213 4.95787 32.384 2.4832Z" fill="black"/>
</svg>
